<svg xmlns="http://www.w3.org/2000/svg" width="250" height="320" viewBox="0 0 250 320">
  <defs>
    <style>
      .cls-1 {
        fill: #860000;
        stroke: #000;
        stroke-linejoin: round;
        stroke-width: 2px;
        fill-rule: evenodd;
      }
    </style>
  </defs>
  <path id="Color_Fill_1" data-name="Color Fill 1" class="cls-1" d="M32,15H220L151,158l10,14,1-7,8,24-22-25-15,32,18,35,21-34,31,3-28,2-18,41s24.288,45.126,38,42,11.915-40.132,9-46,13,18,13,18l-5-1s6.034,36.086-16,42-47-40-47-40l-23,48-24-47s-34.254,50.887-50,39-13-42-13-42H33l14-17s-7.39,45.007,10,45,38-41,38-41L75,203l-26-3,31-3,21,33,17-34-15-32L82,190l7-26,3,7,8-11Zm93,195,18,35-17,32-18-33Zm1-74,13,17-13,28-14-28ZM57,47l53,100,12-16Zm72,83,13,17,47-91Zm-3-6,73-96H51Z"/>
</svg>
